<svg xmlns="http://www.w3.org/2000/svg" width="57.405" height="57" viewBox="0 0 57.405 57">
  <g id="actor" transform="translate(0 -0.008)">
    <path id="Path_1188" data-name="Path 1188" d="M61.637,10.442s-.008,11.474-.012,11.543a.536.536,0,0,1-1.071-.036V17.384a8.61,8.61,0,0,0-8.6-8.62h-12.2a8.618,8.618,0,0,0-8.612,8.6v4.59a.537.537,0,0,1-1.073.035c0-.012,0,.076,0-11.829A4.2,4.2,0,0,1,33.6,6.028,10.453,10.453,0,0,1,43.082.008H54.449A2.877,2.877,0,0,1,57.132,3.9l-.329.865.664.193a5.784,5.784,0,0,1,4.17,5.485Z" transform="translate(-26.464 0)" fill="#fff"/>
    <path id="Path_1189" data-name="Path 1189" d="M73.933,89.227H61.73a6.7,6.7,0,0,0-6.7,6.688s0,7.945,0,7.962a12.8,12.8,0,0,0,20.963,9.657.932.932,0,0,0,.329-.639,4.8,4.8,0,0,1,2.891-3.988.962.962,0,0,0,.524-.529,12.783,12.783,0,0,0,.888-4.591V95.932A6.7,6.7,0,0,0,73.933,89.227ZM65.789,101.4a.957.957,0,0,1-1.913,0V99.723a.957.957,0,1,1,1.913,0Zm5.98,0a.957.957,0,1,1-1.913,0V99.723a.957.957,0,1,1,1.913,0Z" transform="translate(-48.448 -78.692)" fill="#fff"/>
    <path id="Path_1190" data-name="Path 1190" d="M197.539,383.236c0,4.328.016,4.064-.039,4.188s.089-.429-1.486,6.278a.886.886,0,0,1-.862.684h-2.766a.886.886,0,0,1-.792-1.282l5.039-10.081A.478.478,0,0,1,197.539,383.236Z" transform="translate(-168.598 -337.378)" fill="#fff"/>
    <path id="Path_1191" data-name="Path 1191" d="M142.677,382.967a.885.885,0,0,1-.064.624l-1.851,3.705a.886.886,0,0,1-.793.49h-.591a.886.886,0,0,1-.793-.49l-1.851-3.7a.886.886,0,0,1-.064-.624l1.879-7.049a.886.886,0,0,1,.856-.658h.536a.886.886,0,0,1,.856.658Z" transform="translate(-120.301 -330.779)" fill="#fff"/>
    <path id="Path_1192" data-name="Path 1192" d="M67.949,366.746H65.183a.886.886,0,0,1-.863-.684l-1.43-6.112a.957.957,0,0,0-.932-.739h-.886a.886.886,0,0,1-.886-.9l.072-6.077a.887.887,0,0,1,1.679-.386l6.8,13.611A.886.886,0,0,1,67.949,366.746Z" transform="translate(-52.989 -309.738)" fill="#fff"/>
    <path id="Path_1193" data-name="Path 1193" d="M8.319,377.144H.957A.957.957,0,0,1,0,376.187v-6.366a7.125,7.125,0,0,1,3.923-6.531.958.958,0,0,1,1.416.85l-.077,6.413a.958.958,0,0,0,.957.969H7.452a.957.957,0,0,1,.932.739l.867,3.707A.957.957,0,0,1,8.319,377.144Z" transform="translate(0 -320.136)" fill="#fff"/>
    <path id="Path_1194" data-name="Path 1194" d="M95.473,339.357l-1.192,4.467a.478.478,0,0,1-.89.091l-3.609-7.222a.882.882,0,0,1,.336-1.154,5.492,5.492,0,0,0,.794-.568.887.887,0,0,1,1.24.078l3.124,3.491A.886.886,0,0,1,95.473,339.357Z" transform="translate(-78.963 -295.115)" fill="#fff"/>
    <path id="Path_1195" data-name="Path 1195" d="M137.781,330.85l-2.269,2.537a.478.478,0,0,1-.357.159h-2.084a.478.478,0,0,1-.357-.159l-2.266-2.533a.478.478,0,0,1,.463-.785,14.785,14.785,0,0,0,6.408,0,.478.478,0,0,1,.461.785Z" transform="translate(-114.74 -290.869)" fill="#fff"/>
    <path id="Path_1196" data-name="Path 1196" d="M191.075,335.535a.882.882,0,0,1,.336,1.154l-3.609,7.222a.478.478,0,0,1-.89-.091l-1.192-4.467a.886.886,0,0,1,.2-.819l3.124-3.491a.887.887,0,0,1,1.24-.077A5.487,5.487,0,0,0,191.075,335.535Z" transform="translate(-163.483 -295.112)" fill="#fff"/>
    <path id="Path_1197" data-name="Path 1197" d="M284.55,376.949v8.611a2.87,2.87,0,0,1-2.87,2.87H260.87a2.87,2.87,0,0,1-2.87-2.87v-8.611a.957.957,0,0,1,.957-.957h24.636A.957.957,0,0,1,284.55,376.949Z" transform="translate(-227.145 -331.422)" fill="#fff"/>
    <path id="Path_1198" data-name="Path 1198" d="M276.543,230.857v1.555a.957.957,0,0,1-.957.957H250.95a.957.957,0,0,1-.957-.957v-3.325l-.964-3.186a2.873,2.873,0,0,1,1.915-3.578l19.916-6.031a2.874,2.874,0,0,1,3.579,1.915l.451,1.488a2.87,2.87,0,0,1-1.916,3.579l-15.563,4.713h16.261A2.87,2.87,0,0,1,276.543,230.857Z" transform="translate(-219.139 -190.568)" fill="#fff"/>
  </g>
</svg>
