<svg id="Office_Bag" data-name="Office Bag" xmlns="http://www.w3.org/2000/svg" width="20" height="19" viewBox="0 0 20 19">
  <path id="Vector" d="M17,4H14V3a3,3,0,0,0-3-3H9A3,3,0,0,0,6,3V4H3A3,3,0,0,0,0,7v9a3,3,0,0,0,3,3H17a3,3,0,0,0,3-3V7a3,3,0,0,0-3-3ZM8,3A1,1,0,0,1,9,2h2a1,1,0,0,1,1,1V4H8ZM18,16a1,1,0,0,1-1,1H3a1,1,0,0,1-1-1V10.5a21.71,21.71,0,0,0,8,1.53,21.75,21.75,0,0,0,8-1.53Zm0-7.69a19.89,19.89,0,0,1-8,1.68A19.89,19.89,0,0,1,2,8.31V7A1,1,0,0,1,3,6H17a1,1,0,0,1,1,1Z" fill="#d53e38"/>
</svg>
