<svg id="personal-development" xmlns="http://www.w3.org/2000/svg" width="43.372" height="43.684" viewBox="0 0 43.372 43.684">
  <g id="Group_396" data-name="Group 396" transform="translate(0.546 30.237)">
    <g id="Group_395" data-name="Group 395">
      <path id="Path_1262" data-name="Path 1262" d="M15.543,57.746H1.483a.683.683,0,0,1,0-1.365H14.861V53.037a.645.645,0,0,1,.683-.683H24.28V49.01a.645.645,0,0,1,.683-.683h8.054V44.983A.645.645,0,0,1,33.7,44.3h9.215a.683.683,0,0,1,0,1.365H34.382V49.01a.645.645,0,0,1-.683.683H25.645v3.345a.645.645,0,0,1-.683.683H16.226v3.345a.684.684,0,0,1-.683.683Z" transform="translate(-0.8 -44.3)"/>
    </g>
  </g>
  <g id="Group_398" data-name="Group 398" transform="translate(9.471 7.954)">
    <g id="Group_397" data-name="Group 397">
      <path id="Path_1263" data-name="Path 1263" d="M39.966,18.169a2.41,2.41,0,0,1-2.184,2.525l-6.006.478a2.294,2.294,0,0,1-1.911-.751l-1.024-1.16-.751,3.276c.683.41,2.116,1.433,5.256,3.822a2.456,2.456,0,0,1,.887,1.57l.751,6.143a2.424,2.424,0,0,1-2.048,2.662,2.32,2.32,0,0,1-2.594-2.048L29.728,29.5l-2.935-2.321c-.137.683-.341,1.57-.478,2.184-.341,1.5-.341,1.706-.478,1.843l-3.686,6.962a2.4,2.4,0,0,1-3.208.956,2.36,2.36,0,0,1-.956-3.208L21.4,29.431c0-2.389.068-5.187.137-5.529l1.433-6.484-.887.273-4.232,4.232a2.317,2.317,0,1,1-3.276-3.276l4.71-4.641a2.57,2.57,0,0,1,1.024-.614l5.119-1.5a6.868,6.868,0,0,1,2.048-.2,2.991,2.991,0,0,1,1.5.819l3.618,3.959,4.914-.341a2.187,2.187,0,0,1,2.457,2.048Z" transform="translate(-13.875 -11.653)"/>
    </g>
  </g>
  <g id="Group_400" data-name="Group 400" transform="translate(20.886)">
    <g id="Group_399" data-name="Group 399">
      <path id="Path_1264" data-name="Path 1264" d="M37.972,3.686A3.686,3.686,0,1,1,34.286,0,3.67,3.67,0,0,1,37.972,3.686Z" transform="translate(-30.6)"/>
    </g>
  </g>
  <g id="Group_401" data-name="Group 401">
    <path id="Path_1265" data-name="Path 1265"/>
  </g>
  <g id="Group_402" data-name="Group 402" transform="translate(37.609 13.173)">
    <path id="Path_1266" data-name="Path 1266" d="M59.673,22.576l-1.024-1.024V35H57.284V21.621L56.26,22.645a.676.676,0,1,1-.956-.956L57.489,19.5a.66.66,0,0,1,.956,0l2.184,2.184C61.311,22.235,60.356,23.191,59.673,22.576Z" transform="translate(-55.1 -19.3)"/>
  </g>
  <g id="Group_405" data-name="Group 405" transform="translate(0.237 15.426)">
    <g id="Group_403" data-name="Group 403" transform="translate(0 0.205)">
      <path id="Path_1267" data-name="Path 1267" d="M5.707,28.7,4.82,22.9a.067.067,0,0,0-.068.068L.793,26.586A1.321,1.321,0,0,0,.725,28.5l5.6,6.006a1.319,1.319,0,0,0,1.911.068l3.891-3.618a.067.067,0,0,1,.068-.068L6.117,29.248a.708.708,0,0,1-.41-.546Z" transform="translate(-0.348 -22.9)"/>
    </g>
    <g id="Group_404" data-name="Group 404" transform="translate(5.837)">
      <path id="Path_1268" data-name="Path 1268" d="M15.316,29.494l-5.6-1.5L8.9,22.6c.546.2.546.478,2.048,1.979A3.872,3.872,0,0,0,13.4,27.241C14.838,28.811,15.111,28.948,15.316,29.494Z" transform="translate(-8.9 -22.6)"/>
    </g>
  </g>
</svg>
