<svg xmlns="http://www.w3.org/2000/svg" width="49.514" height="50.227" viewBox="0 0 49.514 50.227">
  <g id="graduation-cap-and-diploma-with-a-mouse" transform="translate(-0.224)">
    <g id="Group_335" data-name="Group 335" transform="translate(0.224)">
      <path id="Path_1250" data-name="Path 1250" d="M8.5,17.94H7.339v4.922h4.081V17.94H10.188V11.095l20.339,6.52L43.467,6.062,22.422,0,5.88,9.714l2.624.84Z" transform="translate(3.097)"/>
      <path id="Path_1251" data-name="Path 1251" d="M20.175,28.277A5.327,5.327,0,0,0,25.5,33.6h.246a5.328,5.328,0,0,0,5.327-5.327v-2.7h-10.9v2.7Z" transform="translate(11.49 15.017)"/>
      <path id="Path_1252" data-name="Path 1252" d="M41.707,24.012c1.268-1.143,2.276-4.322.524-5.512-2.559-1.74-6.631-.854-9.53-.96a7.617,7.617,0,0,1-1.714-.287c1.424-.916,2.432-1.56,2.432-1.56V8.73l-5.935,5.244L11.41,8.486v9a11,11,0,0,1,6.452-.033A62.606,62.606,0,0,1,26.438,21.8,14.944,14.944,0,0,1,29.844,18c2.841.794,6.157.279,9.012.383,3.855.141,4.358,3.67,1.343,5.828a13.864,13.864,0,0,1-4.651,1.694c-2.244.575-4.06,1.5-4.814,3.459h-.119c-.011.068-.021.14-.03.192H25.32V35.3h10.9V29.556h-4.69C33.074,26.307,39.2,26.268,41.707,24.012ZM31.564,33.631a.775.775,0,0,1-.773.775h-.035a.777.777,0,0,1-.773-.775V31.615a.774.774,0,0,1,.475-.713.374.374,0,0,0,.632,0,.773.773,0,0,1,.478.716l0,2.016Z" transform="translate(6.345 4.983)"/>
      <path id="Path_1253" data-name="Path 1253" d="M29.633,33.891a3.658,3.658,0,0,0-1.622-1.684c-1.03-.624-6.138-3.733-10.488-6.833a10.742,10.742,0,0,1,2.851-2.706,28.378,28.378,0,0,1,4.363-1.854l-2.155-.436.1-1.392a13.134,13.134,0,0,0-3.736,1.863,30.4,30.4,0,0,0-2.516,2.478,12.722,12.722,0,0,1,1.478-3.544A16.119,16.119,0,0,1,21.1,16.806l-1.606-.4-1-2s-2.211,3.979-2.589,4.9a38.285,38.285,0,0,1-1.552,3.706c-3.181-2.508-5.771-4.889-5.966-5.1a4.344,4.344,0,0,0-3.53-1.641c-1.5.13-2.949,1.249-4.293,3.332l-.344.529.546.329,1.335.806a8.1,8.1,0,0,0-.879,5.9l.092.329.327.1c5.939,1.738,16.01,10.988,17.177,12.069a4.4,4.4,0,0,0,1.494,1.355c2.66,1.581,5.877.468,7.739-1.236a5.225,5.225,0,0,0,1.886-5A4.048,4.048,0,0,0,29.633,33.891ZM16.193,25.929c2.889,2.092,6.219,4.243,8.528,5.687a18.862,18.862,0,0,0-5.457,1.246,29.663,29.663,0,0,0-5.77-5.384A9.554,9.554,0,0,1,16.193,25.929Zm-7.6,3.9A27.538,27.538,0,0,0,2.33,26.509a7.085,7.085,0,0,1,.819-4.6c2.563,1.59,4.709,3.014,6.5,4.271A4.8,4.8,0,0,0,8.6,29.834ZM1.956,19.739c1.011-1.411,2.021-2.167,3.011-2.251A3.142,3.142,0,0,1,7.49,18.738c.3.325,2.676,2.489,5.558,4.795a5.654,5.654,0,0,0-2.565,1.733C8.23,23.675,5.432,21.837,1.956,19.739ZM27.232,38.862c-1.544,1.408-4.166,2.347-6.287,1.089-1.063-.632-1.489-1.336-1.267-2.089a3.076,3.076,0,0,1,1.006-1.379c.522.335,1.586,1.051,3.413,2.4l.292.216.33-.151c2.114-.963,2.108-2.243,2.009-2.749-.249-1.17-1.579-2.032-3.346-2.1-1.5-.059-4.279,1.382-4.879,3.417q-.021.069-.038.148c-1.449-1.3-3.943-3.471-6.727-5.582a6.015,6.015,0,0,1,.884-3.72c4.874,3.749,5.843,5.506,5.854,5.525l.256.522.535-.229c2.113-.9,7.895-2.617,9.266.241C29.329,36.091,28.378,37.808,27.232,38.862ZM21.8,35.748a3.491,3.491,0,0,1,1.53-.425c1.275.046,2.071.594,2.187,1.092,0,.006,0,.016,0,.024.078.4-.29.848-1,1.235C23.258,36.743,22.38,36.133,21.8,35.748Z" transform="translate(-0.224 8.459)"/>
    </g>
  </g>
</svg>
