<svg id="people" xmlns="http://www.w3.org/2000/svg" width="50.142" height="50.142" viewBox="0 0 50.142 50.142">
  <circle id="Ellipse_220" data-name="Ellipse 220" cx="5.389" cy="5.389" r="5.389" transform="translate(19.665)"/>
  <path id="Path_1247" data-name="Path 1247" d="M15.385,414.961a8.306,8.306,0,0,1-12.162,0A7.343,7.343,0,0,0,0,421.037V423a1.469,1.469,0,0,0,1.469,1.469H17.138A1.469,1.469,0,0,0,18.607,423v-1.959A7.343,7.343,0,0,0,15.385,414.961Z" transform="translate(0 -374.322)"/>
  <path id="Path_1248" data-name="Path 1248" d="M337.385,414.961a8.306,8.306,0,0,1-12.162,0A7.342,7.342,0,0,0,322,421.037V423a1.469,1.469,0,0,0,1.469,1.469h15.669A1.469,1.469,0,0,0,340.607,423v-1.959A7.343,7.343,0,0,0,337.385,414.961Z" transform="translate(-290.465 -374.322)"/>
  <path id="Path_1249" data-name="Path 1249" d="M71.605,137.727a5.386,5.386,0,1,0,.355-2.966l-6.4-1.989a4.415,4.415,0,0,0-2.934-3.983v-6.325h6.366A1.469,1.469,0,0,0,70.457,121v-1.959a7.343,7.343,0,0,0-3.223-6.076,8.306,8.306,0,0,1-12.162,0,7.343,7.343,0,0,0-3.223,6.076V121a1.469,1.469,0,0,0,1.469,1.469h6.366v6.325a4.415,4.415,0,0,0-2.934,3.983l-6.4,1.989a5.387,5.387,0,1,0,.355,2.966l6.921-2.149a4.4,4.4,0,0,0,7.061,0Z" transform="translate(-36.083 -101.898)"/>
</svg>
