<svg xmlns="http://www.w3.org/2000/svg" width="63.732" height="49.911" viewBox="0 0 63.732 49.911">
  <g id="Group_337" data-name="Group 337" transform="translate(-29.289 -13.072)">
    <g id="audit" transform="translate(29.289 13.072)">
      <path id="Path_1246" data-name="Path 1246" d="M11.814,12.646H1.965L12.646,1.965v9.849A.846.846,0,0,1,11.814,12.646ZM31.961,34.274l-3.327,6.655L35.289,37.6,45.754,27.137l-3.327-3.327ZM50.262,19.3a2.46,2.46,0,0,0-3.444.1l-2.046,2.047L48.1,24.774l2.046-2.047A2.423,2.423,0,0,0,50.262,19.3ZM25.656,39.449a3.313,3.313,0,0,0,.633,3.826,3.26,3.26,0,0,0,2.345.981,3.342,3.342,0,0,0,1.481-.349l6.655-3.327a2.952,2.952,0,0,0,.865-.632l3.294-3.295v10.1a4.161,4.161,0,0,1-4.159,4.159H5.159A4.161,4.161,0,0,1,1,46.752V15.973H11.814a4.161,4.161,0,0,0,4.159-4.159V1h20.8a4.161,4.161,0,0,1,4.159,4.159V20.581L29.6,31.928a3.278,3.278,0,0,0-.616.866ZM13.827,38.084a1.678,1.678,0,0,0-2.362,0L9.319,40.246l-.483-.5A1.67,1.67,0,0,0,6.474,42.11l1.664,1.664a1.687,1.687,0,0,0,2.362,0l3.327-3.327A1.676,1.676,0,0,0,13.827,38.084Zm0-8.318a1.678,1.678,0,0,0-2.362,0L9.319,31.928l-.483-.5a1.67,1.67,0,0,0-2.362,2.362l1.664,1.664a1.687,1.687,0,0,0,2.362,0l3.327-3.327A1.676,1.676,0,0,0,13.827,29.765Zm0-8.318a1.678,1.678,0,0,0-2.362,0L9.319,23.609l-.483-.5a1.67,1.67,0,0,0-2.362,2.362l1.664,1.664a1.687,1.687,0,0,0,2.362,0l3.327-3.327A1.676,1.676,0,0,0,13.827,21.447Zm3.81,2.845A1.669,1.669,0,0,0,19.3,25.955H34.274a1.664,1.664,0,1,0,0-3.327H19.3A1.669,1.669,0,0,0,17.637,24.292Zm6.655,16.637a1.669,1.669,0,0,0-1.664-1.664H19.3a1.664,1.664,0,1,0,0,3.327h3.327A1.669,1.669,0,0,0,24.292,40.929Zm1.664-8.318a1.669,1.669,0,0,0-1.664-1.664H19.3a1.664,1.664,0,1,0,0,3.327h4.991A1.669,1.669,0,0,0,25.956,32.61Z" transform="translate(-1 -1)"/>
    </g>
    <path id="send" d="M11.61,18.109a1.666,1.666,0,0,1-1.6-1.2L8.057,10.052,1.2,8.094a1.668,1.668,0,0,1-.007-3.2L17.426.023a.531.531,0,0,1,.661.661l-4.869,16.23A1.667,1.667,0,0,1,11.61,18.109Z" transform="translate(74.913 16.115)"/>
  </g>
</svg>
