<svg xmlns="http://www.w3.org/2000/svg" width="50.243" height="49.733" viewBox="0 0 50.243 49.733">
  <g id="settings-gears" transform="translate(-0.001 -4.737)">
    <path id="Path_1243" data-name="Path 1243" d="M3.3,22.89a12.232,12.232,0,0,0,1.094,2.6L3.073,27.154a1.367,1.367,0,0,0,.1,1.811L5.45,31.239a1.361,1.361,0,0,0,1.811.1l1.655-1.31a12.022,12.022,0,0,0,2.7,1.143l.248,2.129a1.363,1.363,0,0,0,1.353,1.207h3.218A1.364,1.364,0,0,0,17.788,33.3l.237-2.054a12.16,12.16,0,0,0,2.894-1.17l1.6,1.267a1.367,1.367,0,0,0,1.811-.1l2.275-2.275a1.361,1.361,0,0,0,.1-1.811L25.463,25.58a11.878,11.878,0,0,0,1.191-2.846l1.919-.221A1.363,1.363,0,0,0,29.78,21.16V17.942a1.363,1.363,0,0,0-1.207-1.353l-1.892-.221a11.955,11.955,0,0,0-1.143-2.814L26.7,12.083a1.367,1.367,0,0,0-.1-1.811L24.331,8a1.361,1.361,0,0,0-1.811-.1L21.092,9.033a12,12,0,0,0-2.959-1.24l-.216-1.849a1.363,1.363,0,0,0-1.353-1.207H13.346a1.363,1.363,0,0,0-1.353,1.207l-.216,1.849A11.945,11.945,0,0,0,8.743,9.076L7.261,7.9A1.367,1.367,0,0,0,5.45,8L3.176,10.278a1.361,1.361,0,0,0-.1,1.811l1.24,1.568A11.725,11.725,0,0,0,3.192,16.5l-1.983.226A1.363,1.363,0,0,0,0,18.077v3.218a1.363,1.363,0,0,0,1.207,1.353Zm11.658-8.7a5.32,5.32,0,1,1-5.32,5.32A5.327,5.327,0,0,1,14.958,14.186Z"/>
    <path id="Path_1244" data-name="Path 1244" d="M498.929,291.45l-1.7-1.434a1.343,1.343,0,0,0-1.789.048l-.938.879a9.694,9.694,0,0,0-2.5-.808l-.264-1.294a1.355,1.355,0,0,0-1.434-1.078l-2.215.189a1.35,1.35,0,0,0-1.234,1.3l-.043,1.315a9.72,9.72,0,0,0-2.388,1.256l-1.121-.744a1.347,1.347,0,0,0-1.773.253L480.1,293.04a1.343,1.343,0,0,0,.048,1.789l.981,1.046a10.045,10.045,0,0,0-.722,2.393l-1.4.286a1.355,1.355,0,0,0-1.078,1.434l.189,2.215a1.35,1.35,0,0,0,1.3,1.234l1.515.048A9.9,9.9,0,0,0,482,305.534l-.846,1.277a1.347,1.347,0,0,0,.253,1.773l1.7,1.434a1.343,1.343,0,0,0,1.789-.048l1.11-1.04a9.73,9.73,0,0,0,2.28.744l.307,1.52a1.355,1.355,0,0,0,1.434,1.078l2.215-.189a1.35,1.35,0,0,0,1.234-1.3l.049-1.488a9.963,9.963,0,0,0,2.28-1.153l1.224.808a1.347,1.347,0,0,0,1.773-.253l1.434-1.7a1.343,1.343,0,0,0-.049-1.789l-.986-1.046a9.706,9.706,0,0,0,.776-2.4l1.348-.275a1.355,1.355,0,0,0,1.078-1.434l-.189-2.215a1.35,1.35,0,0,0-1.3-1.234l-1.353-.043a9.787,9.787,0,0,0-1.126-2.221l.738-1.11A1.34,1.34,0,0,0,498.929,291.45Zm-8.349,12.806a4.354,4.354,0,1,1,3.972-4.705A4.355,4.355,0,0,1,490.581,304.256Z" transform="translate(-452.161 -267.767)"/>
    <path id="Path_1245" data-name="Path 1245" d="M183.521,566.587a1.346,1.346,0,0,0-1.207,1.326l-.016,1.364a1.343,1.343,0,0,0,1.175,1.353l1,.129a7.777,7.777,0,0,0,.711,1.741l-.647.8a1.344,1.344,0,0,0,.081,1.789l.954.976a1.346,1.346,0,0,0,1.789.124l.8-.62a7.875,7.875,0,0,0,1.789.782l.108,1.035a1.347,1.347,0,0,0,1.326,1.207l1.364.016a1.343,1.343,0,0,0,1.353-1.175l.124-.981a8.1,8.1,0,0,0,1.94-.755l.755.609a1.344,1.344,0,0,0,1.79-.081l.976-.954a1.346,1.346,0,0,0,.124-1.789l-.577-.749a7.816,7.816,0,0,0,.819-1.886l.895-.092a1.347,1.347,0,0,0,1.207-1.326l.016-1.364A1.343,1.343,0,0,0,201,566.711l-.873-.113a8.122,8.122,0,0,0-.738-1.886l.544-.668a1.344,1.344,0,0,0-.081-1.789l-.954-.976a1.346,1.346,0,0,0-1.789-.124l-.652.5a7.923,7.923,0,0,0-1.962-.852l-.086-.846a1.346,1.346,0,0,0-1.326-1.207l-1.364-.016a1.343,1.343,0,0,0-1.353,1.175l-.108.841a8.14,8.14,0,0,0-2.032.83l-.674-.55a1.344,1.344,0,0,0-1.789.081l-.981.959a1.346,1.346,0,0,0-.124,1.789l.577.744a7.888,7.888,0,0,0-.771,1.886Zm8.8-1.542a3.547,3.547,0,1,1-3.59,3.5A3.55,3.55,0,0,1,192.322,565.046Z" transform="translate(-172.47 -524.137)"/>
  </g>
</svg>
