<svg xmlns="http://www.w3.org/2000/svg" width="59.441" height="59.202" viewBox="0 0 59.441 59.202">
  <g id="_x31_490_x2C__Celebration_x2C__Choreography_x2C__Dance_x2C__Party" transform="translate(-31.001 -31.905)">
    <g id="Group_275" data-name="Group 275" transform="translate(31.001 31.905)">
      <path id="Path_1130" data-name="Path 1130" d="M206.486,182.1,212,178.734a.662.662,0,0,1,.092-.044l-3.64-2.194A25.421,25.421,0,0,0,206.486,182.1Z" transform="translate(-183.306 -157.397)" fill="#fff"/>
      <path id="Path_1131" data-name="Path 1131" d="M176.412,49.507a4.666,4.666,0,1,0-4.623-4.666A4.65,4.65,0,0,0,176.412,49.507Z" transform="translate(-153.192 -39.083)" fill="#fff"/>
      <path id="Path_1132" data-name="Path 1132" d="M432.983,350.1a1.981,1.981,0,1,0,1.981,1.981A1.984,1.984,0,0,0,432.983,350.1Z" transform="translate(-378.165 -308.065)" fill="#fff"/>
      <path id="Path_1133" data-name="Path 1133" d="M276.412,69.669A4.666,4.666,0,1,0,271.789,65,4.65,4.65,0,0,0,276.412,69.669Z" transform="translate(-239.983 -56.581)" fill="#fff"/>
      <path id="Path_1134" data-name="Path 1134" d="M52.788,56.833a24.817,24.817,0,0,1,2.548-7.092.661.661,0,0,1,.908-.227l11.381,6.86a8.583,8.583,0,0,0,2.235.361,2.091,2.091,0,0,0,1.65-.556,1.6,1.6,0,0,0,.34-.992L31.616,31.9c-1.1,1.015-.414,2.838-.182,3.365L45.9,44.815a.659.659,0,0,1,.155.142c1.17,1.482,1.235,4.613.195,9.308a60.426,60.426,0,0,1-1.837,6.45.67.67,0,0,1-.038.086c-2.81,5.344,1.07,9.807,1.109,9.852a.661.661,0,0,1-.479,1.1l-2.585.058a1.643,1.643,0,0,0-1.159.513A1.685,1.685,0,0,0,42.44,75.17l7.578.085a.661.661,0,0,1,.653.665l-.09,13.534a1.637,1.637,0,0,0,.477,1.176,1.6,1.6,0,0,0,1.145.479,1.628,1.628,0,0,0,1.619-1.559l.651-16.03A27.648,27.648,0,0,1,52.788,56.833Z" transform="translate(-31.009 -31.905)" fill="#fff"/>
      <path id="Path_1135" data-name="Path 1135" d="M446,215.1h2.642v2.642H446Z" transform="translate(-391.184 -190.897)" fill="#fff"/>
      <path id="Path_1136" data-name="Path 1136" d="M34.964,172.076a1.981,1.981,0,1,0-1.981,1.981A1.984,1.984,0,0,0,34.964,172.076Z" transform="translate(-31.001 -151.841)" fill="#fff"/>
      <path id="Path_1137" data-name="Path 1137" d="M46,405.1h2.642v2.642H46Z" transform="translate(-44.02 -355.8)" fill="#fff"/>
      <path id="Path_1138" data-name="Path 1138" d="M285.7,32.642,268.519,42.686a5.921,5.921,0,0,1-6.693,4.181c-.014.008-.025.017-.039.024l-4.055,1.91,10.475,6.062a.66.66,0,0,1,.32.461,3.109,3.109,0,0,1-.615,2.341,3.308,3.308,0,0,1-2.666,1.032,10.022,10.022,0,0,1-2.68-.435.66.66,0,0,1-.16-.07l-.821-.5.183,1.837a.66.66,0,0,1-.059.345L256.9,70.193l-.01.02a4.913,4.913,0,0,0-.528,1.966l-.216,3.91a4.946,4.946,0,0,0,.134,1.448c0,.011.005.023.008.035l2.15,11.463a1.647,1.647,0,0,0,1.783,1.235,1.619,1.619,0,0,0,1.147-.689,1.677,1.677,0,0,0,.258-1.342c0-.01,0-.019-.006-.029l-2.462-13.177a.66.66,0,0,1,.024-.333l3.383-9.976a.66.66,0,0,1,1.251.424L261.1,73.141a.656.656,0,0,1,.543-.065l1.4.454a2.287,2.287,0,0,0,2.521-.794l3.954-5.189L270.6,45.754a.66.66,0,0,1,.311-.528L284.619,36.7a4.056,4.056,0,0,0,1.083-4.058Z" transform="translate(-226.396 -32.545)" fill="#fff"/>
    </g>
  </g>
</svg>
