<svg xmlns="http://www.w3.org/2000/svg" width="59.973" height="59" viewBox="0 0 59.973 59">
  <g id="cameraman" transform="translate(-0.001 -4.154)">
    <g id="Group_280" data-name="Group 280" transform="translate(33.884 4.154)">
      <g id="Group_279" data-name="Group 279">
        <path id="Path_1185" data-name="Path 1185" d="M315.265,60.5,302.2,22.777h5.027A.774.774,0,0,0,308,22V19.928l2.856.273a.774.774,0,0,0,.848-.771V14.725a.775.775,0,0,0-.848-.771L308,14.227V12.153a.774.774,0,0,0-.774-.774H306.1a4.946,4.946,0,0,0-7.641-6.006,4.946,4.946,0,0,0-7.641,6.006h-.77a.774.774,0,0,0-.774.774V22a.774.774,0,0,0,.774.774h5.3l-1.979,5.715a5.566,5.566,0,0,1,2.84,2.209l.865-2.5V51.53a1.7,1.7,0,0,0,3.406,0V28.2l11.571,33.408a1.7,1.7,0,1,0,3.218-1.115ZM295.209,10.648A1.544,1.544,0,1,1,296.753,9.1,1.546,1.546,0,0,1,295.209,10.648Zm4.95-1.544a1.544,1.544,0,1,1,1.544,1.544A1.546,1.546,0,0,1,300.159,9.1Z" transform="translate(-289.27 -4.154)" fill="#fff"/>
      </g>
    </g>
    <g id="Group_282" data-name="Group 282" transform="translate(28.783 38.426)">
      <g id="Group_281" data-name="Group 281">
        <path id="Path_1186" data-name="Path 1186" d="M251.474,296.735l-5.757,16.622,1.819,5.157,7.527-21.732A5.224,5.224,0,0,1,251.474,296.735Z" transform="translate(-245.717 -296.735)" fill="#fff"/>
      </g>
    </g>
    <g id="Group_284" data-name="Group 284" transform="translate(18.942 5.46)">
      <g id="Group_283" data-name="Group 283">
        <circle id="Ellipse_209" data-name="Ellipse 209" cx="5.808" cy="5.808" r="5.808" fill="#fff"/>
      </g>
    </g>
    <g id="Group_286" data-name="Group 286" transform="translate(0.001 14.735)">
      <g id="Group_285" data-name="Group 285" transform="translate(0)">
        <path id="Path_1187" data-name="Path 1187" d="M37.44,110.852,27.816,106.7l-8.66-7.268,5.074,2.631a3.917,3.917,0,0,0-1.757-3.076l-5.84-3.855A3.924,3.924,0,0,0,11.2,96.244C10.84,96.787.14,113.067.14,113.067a3.055,3.055,0,0,0,.224,2.36l5.418,10.112L2.569,139.129a3.065,3.065,0,0,0,5.966,1.41l3.48-14.721a3.108,3.108,0,0,0-.281-2.153l-2.442-4.557,7.021,6.132,5.6,15.627a3.065,3.065,0,0,0,5.771-2.068l-5.859-16.349A3.065,3.065,0,0,0,21,121.216l-5.316-4.824,4.621-7-4.533-5.93,8.955,7.516a2.628,2.628,0,0,0,.649.4l9.978,4.3a2.632,2.632,0,0,0,2.086-4.832Z" transform="translate(-0.001 -94.481)" fill="#fff"/>
      </g>
    </g>
  </g>
</svg>
