<svg xmlns="http://www.w3.org/2000/svg" width="48.002" height="38.004" viewBox="0 0 48.002 38.004">
  <g id="costume" transform="translate(0 -4.996)">
    <path id="Path_1179" data-name="Path 1179" d="M42.67,26.93H37.78L39,29.23a3,3,0,0,1-1.11,3.97l-3.3,1.98a3,3,0,0,1-4.17-1.11l-.75-1.35V40a3.866,3.866,0,0,1-.03.48A12.174,12.174,0,0,0,37.17,43a12.626,12.626,0,0,0,10.29-5.32,1.991,1.991,0,0,0,.11-2.16Z" fill="#fff"/>
    <path id="Path_1180" data-name="Path 1180" d="M47.44,15.86l-3.93-1.92A6.633,6.633,0,0,1,37.17,20a6.014,6.014,0,0,1-3.77-1.35l3.32,6.28h6.3a8.541,8.541,0,0,1,3.7-4.23,1.031,1.031,0,0,0,.46-.62l.79-3.07a1.01,1.01,0,0,0-.53-1.15Z" fill="#fff"/>
    <path id="Path_1181" data-name="Path 1181" d="M10.966,23.121a3,3,0,0,1,0-4.243l.566-.566a3,3,0,0,1-.413-4.587l.157-.157-.654.109a4,4,0,0,0-2.877,2.074L.116,30.161a1,1,0,0,0,.37,1.325l3.3,1.98a1,1,0,0,0,1.389-.372l4.5-8.1V40a2,2,0,0,0,2,2h6V29.722a1.967,1.967,0,0,1-.414-.309Z" fill="#fff"/>
    <path id="Path_1182" data-name="Path 1182" d="M33.56,33.467l3.3-1.98a1,1,0,0,0,.369-1.325L29.6,15.751a4,4,0,0,0-2.877-2.074l-.654-.109.157.157a3,3,0,0,1-.413,4.587l.568.568a3,3,0,0,1,0,4.243l-6.291,6.29a1.967,1.967,0,0,1-.414.309V42h6a2,2,0,0,0,2-2V25l4.5,8.1a1,1,0,0,0,1.389.372Z" fill="#fff"/>
    <path id="Path_1183" data-name="Path 1183" d="M24.966,20.293,22.673,18l1.985-1.323a1,1,0,0,0,.152-1.539L22.672,13l-4,14.926L14.672,13l-2.138,2.137a1,1,0,0,0,.153,1.539L14.672,18l-2.293,2.292a1,1,0,0,0,0,1.414L18.672,28l6.293-6.292a1,1,0,0,0,0-1.414Z" fill="#fff"/>
    <path id="Path_1184" data-name="Path 1184" d="M4,12a3,3,0,0,0,2.816-2H17.67v3h-.93l.54,2h2.78l.54-2h-.93V10h16.5V13h-3.4V13A5.594,5.594,0,0,0,33.136,15h8.07A5.571,5.571,0,0,0,41.571,13l0-.006h-3.4V10h3.013a3,3,0,1,0,0-2H38.172V8a3,3,0,0,0-6,0L32.177,8H19.671V8a3,3,0,0,0-6,0l0,0H6.815A2.994,2.994,0,1,0,4,12ZM44,8a1,1,0,1,1-1,1A1,1,0,0,1,44,8ZM34.171,8a1,1,0,0,1,2,0V8H34.164ZM15.67,8a1,1,0,0,1,2,0V8h-2V8ZM4,8A1,1,0,1,1,3,9,1,1,0,0,1,4,8Z" fill="#fff"/>
  </g>
</svg>
