<?xml version="1.0" encoding="UTF-8"?>
<!DOCTYPE svg PUBLIC "-//W3C//DTD SVG 1.1//EN" "http://www.w3.org/Graphics/SVG/1.1/DTD/svg11.dtd">
<svg xmlns="http://www.w3.org/2000/svg" version="1.1" width="50px" height="44px" style="shape-rendering:geometricPrecision; text-rendering:geometricPrecision; image-rendering:optimizeQuality; fill-rule:evenodd; clip-rule:evenodd" xmlns:xlink="http://www.w3.org/1999/xlink">
<g><path style="opacity:0.92" d="M 20.5,-0.5 C 23.1667,-0.5 25.8333,-0.5 28.5,-0.5C 35.2964,4.06977 42.2964,8.40311 49.5,12.5C 49.5,13.5 49.5,14.5 49.5,15.5C 46.0484,18.3993 42.3817,21.0659 38.5,23.5C 36.7615,24.4339 35.0948,24.4339 33.5,23.5C 30.516,20.0154 27.3493,16.682 24,13.5C 23.5,14 23,14.5 22.5,15C 25,17.5 27.5,20 30,22.5C 30.6776,24.5976 30.5109,26.5976 29.5,28.5C 27.6583,28.7233 25.825,29.0566 24,29.5C 20.4358,28.2998 16.9358,26.9665 13.5,25.5C 8.86977,22.5136 4.2031,19.5136 -0.5,16.5C -0.5,14.8333 -0.5,13.1667 -0.5,11.5C 6.6981,7.73764 13.6981,3.73764 20.5,-0.5 Z"/></g>
<g><path style="opacity:0.922" d="M 13.5,25.5 C 18.1893,30.5947 23.5226,31.5947 29.5,28.5C 30.4794,31.6248 30.8128,34.9581 30.5,38.5C 23.825,38.6663 17.1583,38.4996 10.5,38C 9.33333,36.8333 8.16667,35.6667 7,34.5C 6.33333,30.5 6.33333,26.5 7,22.5C 8.99349,23.914 11.1602,24.914 13.5,25.5 Z"/></g>
<g><path style="opacity:0.811" d="M 33.5,43.5 C 32.5,43.5 31.5,43.5 30.5,43.5C 30.5,41.8333 30.5,40.1667 30.5,38.5C 31.5,38.5 32.5,38.5 33.5,38.5C 33.1758,34.4454 33.5091,30.4454 34.5,26.5C 36.261,25.9649 37.5943,24.9649 38.5,23.5C 39.5832,23.4606 40.5832,23.1272 41.5,22.5C 43.1632,27.7263 42.4965,32.5596 39.5,37C 37.9751,38.0086 36.3084,38.5086 34.5,38.5C 34.634,40.2915 34.3007,41.9582 33.5,43.5 Z"/></g>
</svg>
