<svg xmlns="http://www.w3.org/2000/svg" width="51.413" height="75.405" viewBox="0 0 51.413 75.405">
  <g id="female-flamenco-dancer" transform="translate(-3.351)">
    <path id="Path_1178" data-name="Path 1178" d="M52.824,55.627c.217,3.382-2.515,7.9-3.409,12.766-.137.731-1.82.161-1.914.957s1.313,3.353,1.4,4.074-2.129.473-2.129.473l-.343.554h-.937l-.6-1.791s-4.435-.511-4.608.255-.639.17-2.985,1.535-10.878.939-14.164.69c-1.553-.128-3.944-1.253-5.462-1.542a4.49,4.49,0,0,0-2.727.26,2.883,2.883,0,0,1-2.134-1.369c-.287-.666-2.351-5.168-1.195-5.627s5.2-2.008,5.374-2.562S15.8,60.349,14.8,60.11s-2.651-1.853-3.31-2.293c-.639-.426.108-1.387-.043-2.349-.159-1.013-.867-1.838-.168-2.091,1.358-.5,4.334-1.6,8.83-3.2,1.567-.558,4.31-.081,5.672-.6,1.432-.538,1.45-2.062,1.708-2.559.852-1.663-.043-2.564.468-4.527.679-2.6,3.1-4.65,3.29-7.06.128-1.578-3.377-7.145-4.955-7.741-.735-.278-3.44-.166-5.8-.3-2.7-.155-5.067-.545-5.545-.621-.9-.143-5.654-3.342-5.654-3.342s.173,1.49-.426,1.961-.4-1.865-.829-1.291-.428.524-.728.975.428,2.3.108,2.6-.453-.695-.453-.695-.186.843-.444.48a8.673,8.673,0,0,1-.446-2.1s-.428,1.546-.661,1.118.28-1.535.28-1.535,2-3.727,3.111-3.752,6.1,2.918,9.942,3,3.669-.766,8.061-.939a2.508,2.508,0,0,1-.769-2.3c.045-.8-1.32-1.508-1.363-4.1s3.689-3.427,5.022-3.415a2.951,2.951,0,0,1,2.656,1.338A2.279,2.279,0,0,0,34.189,16c.437.092-.341.852-.341.852l1.107,1.663a.669.669,0,0,1-.406.941,16.009,16.009,0,0,1-2.167.625c-.267.078-.415.825.072,1.378.316.363,1.69,2.239,2.373,1.365a13.63,13.63,0,0,0,1.1-2.524c.316-.852,1.011-1.717,1.309-2.683A14.333,14.333,0,0,0,37.9,13,25.9,25.9,0,0,0,35,5.381c-.513-.766-2.848-.8-3.041-.8-.5.02-1.954.146-2.015-.347s1.876-.39,2.12-.542-.645-1.262-.645-1.262-1.078.193-1.19-.114.831-.563.831-.563S29.857.563,29.965.072,31.724,1.782,32.4,1.95c.874.215,2.662.343,3.6,1.45,2.532,2.992,4.942,8.061,5.036,9.065a62.782,62.782,0,0,1-.536,6.271c-.309,3.008-1.576,4.953-1.535,6.356.018.643.466,1.112.982,2.048.724,1.322-.769,2.091-.894,8.409a46.75,46.75,0,0,0,.686,6.974s1.448-2.2,2.855-2.158,1.748-.722,3.924-2.174,1.535-3.483,2.134-4.65S50.74,29.016,51.89,29.7s4.395,4.7,4.821,9.3-1.829,4.39-1.618,6.93S52.614,52.241,52.824,55.627Z" transform="translate(-2.001 0)" fill="#fff"/>
  </g>
</svg>
