<svg id="makeup-artist" xmlns="http://www.w3.org/2000/svg" width="58.896" height="58.896" viewBox="0 0 58.896 58.896">
  <g id="Group_278" data-name="Group 278">
    <g id="Group_277" data-name="Group 277">
      <path id="Path_1148" data-name="Path 1148" d="M335.448,123.586v4.062a2.031,2.031,0,0,0,0-4.062Z" transform="translate(-296.861 -109.37)" fill="#fff"/>
      <path id="Path_1149" data-name="Path 1149" d="M194.554,92.118a7.111,7.111,0,0,0,13.519,0l-4.729-1.455V87.049l.816-.163a5.315,5.315,0,0,0,4.261-5.2V73.665a1.017,1.017,0,0,0-1.016-1.015h-1.016V71.634a1.017,1.017,0,0,0-1.016-1.016,1.149,1.149,0,0,0-.886.415l-.527.632a13.981,13.981,0,0,1-9.758,5.008v5.014a5.314,5.314,0,0,0,4.261,5.2l.816.163v3.613Zm10.821-15.406a1.016,1.016,0,1,1-1.016,1.016A1.016,1.016,0,0,1,205.375,76.712Zm-5.077,0h2.031v4.062H200.3Zm-4.062,1.016a1.016,1.016,0,1,1,1.016,1.016A1.016,1.016,0,0,1,196.236,77.727Zm1.23,4.73-.107-.214,1.816-.908.107.214a2.271,2.271,0,0,0,4.062,0l.107-.214,1.816.908-.107.214a4.3,4.3,0,0,1-7.695,0Z" transform="translate(-171.865 -62.496)" fill="#fff"/>
      <path id="Path_1150" data-name="Path 1150" d="M70.621,173.626a3.042,3.042,0,0,1,2.385,2.254l.566,2.264a1.01,1.01,0,0,0,.1.247l.179.322a9.13,9.13,0,0,1,6.179-6.519l7.857-2.417v-.5a7.363,7.363,0,0,1-4.991-5.86h-.087a4.059,4.059,0,0,1-3.306-1.707,7.1,7.1,0,0,1-4.108,2.83l-2.968.742-1.8,5.408Z" transform="translate(-62.497 -143.109)" fill="#fff"/>
      <path id="Path_1151" data-name="Path 1151" d="M161.942,12.185a11.961,11.961,0,0,0,9.213-4.315l.527-.632a3.176,3.176,0,0,1,2.446-1.146,3.052,3.052,0,0,1,2.915,2.162,3.052,3.052,0,0,1,2.162,2.915v1.016a4.036,4.036,0,0,1,2.031.546V7.108a3.05,3.05,0,0,0-3.046-3.046h-.628l-.281-.561A6.3,6.3,0,0,0,171.618,0h-3.582A9.149,9.149,0,0,0,158.9,9.139v3.593a4.035,4.035,0,0,1,2.031-.546Zm-1.015-4.062a11.169,11.169,0,0,0,7.949-3.293l.472-.472L170.784,5.8l-.472.472a13.185,13.185,0,0,1-9.385,3.888Z" transform="translate(-140.618)" fill="#fff"/>
      <path id="Path_1152" data-name="Path 1152" d="M160.928,127.649v-4.062a2.031,2.031,0,1,0,0,4.062Z" transform="translate(-140.619 -109.371)" fill="#fff"/>
      <path id="Path_1153" data-name="Path 1153" d="M296.3,163.419a7.363,7.363,0,0,1-4.991,5.86v.5l7.857,2.417a9.13,9.13,0,0,1,6.274,6.943l.512,2.56h1.6a3.045,3.045,0,0,1,2.872,4.062h3.5l.584-1.751a2.888,2.888,0,0,0-1.448-3.5l-1.961-.98a4.561,4.561,0,0,1-2.535-4.1v-.038a4.436,4.436,0,0,1,.466-1.975l1.144-2.288a3.977,3.977,0,0,0-2.593-5.638l-3.788-.947a7.094,7.094,0,0,1-4.109-2.831,4.058,4.058,0,0,1-3.306,1.707Z" transform="translate(-257.801 -143.11)" fill="#fff"/>
      <path id="Path_1154" data-name="Path 1154" d="M373.27,314.565l-.432-2.162c-.037-.187-.083-.371-.135-.553l-2.985,2.559q.03.177.052.355a3.029,3.029,0,0,1,1.083-.2h2.417Z" transform="translate(-327.189 -275.977)" fill="#fff"/>
      <path id="Path_1155" data-name="Path 1155" d="M371.773,355.134h6.093a1.016,1.016,0,1,0,0-2.031h-6.093a1.016,1.016,0,1,0,0,2.031Z" transform="translate(-328.109 -312.485)" fill="#fff"/>
      <path id="Path_1156" data-name="Path 1156" d="M329.978,461.066h-2.031a2.033,2.033,0,0,1-2.031-2.031h-8.124v5.077a1.017,1.017,0,0,0,1.016,1.016h20.309a1.017,1.017,0,0,0,1.016-1.016v-5.077h-8.124A2.033,2.033,0,0,1,329.978,461.066Z" transform="translate(-281.237 -406.231)" fill="#fff"/>
      <path id="Path_1157" data-name="Path 1157" d="M408.1,427.786v-4.062h-2.031v4.062H408.1Z" transform="translate(-359.358 -374.982)" fill="#fff"/>
      <path id="Path_1158" data-name="Path 1158" d="M1.016,282.483A1.017,1.017,0,0,0,0,283.5v4.062a1.016,1.016,0,1,0,2.031,0V283.5A1.017,1.017,0,0,0,1.016,282.483Z" transform="translate(0 -249.988)" fill="#fff"/>
      <path id="Path_1159" data-name="Path 1159" d="M147.247,275.133h2.414a6.512,6.512,0,0,0-.463-6.413l-.765-1.147,1.69-1.127.765,1.147a8.609,8.609,0,0,1,.668,1.2l2.76-2.365a7.1,7.1,0,0,0-3.871-2.921l-2.621-.806a9.141,9.141,0,0,1-17.4,0l-2.621.806a7.1,7.1,0,0,0-3.871,2.921l2.759,2.365a8.564,8.564,0,0,1,.668-1.2l.765-1.147,1.69,1.126-.765,1.147a6.523,6.523,0,0,0-.407,6.535l2.868,5.736a4.785,4.785,0,0,1-.3,4.794l-2.3,3.453a5.675,5.675,0,0,0-.865,2.142h16.331a3.031,3.031,0,0,1-.174-1.016V278.179A3.049,3.049,0,0,1,147.247,275.133Z" transform="translate(-109.675 -232.484)" fill="#fff"/>
      <path id="Path_1160" data-name="Path 1160" d="M339.118,388.414H318.809a1.017,1.017,0,0,0-1.016,1.016v5.077h8.124v-2.031a2.033,2.033,0,0,1,2.031-2.031h2.031a2.033,2.033,0,0,1,2.031,2.031v2.031h8.124V389.43A1.017,1.017,0,0,0,339.118,388.414Z" transform="translate(-281.237 -343.734)" fill="#fff"/>
      <path id="Path_1161" data-name="Path 1161" d="M47.5,289.842a8.588,8.588,0,0,1,.12-1.422L44.63,285.86c-.052.182-.1.366-.135.553l-1,4.98-2.854-5.138a3.044,3.044,0,0,1-.292-.74l-.566-2.264a1.014,1.014,0,0,0-.985-.769H36.326a1.016,1.016,0,0,0,0,2.031,3.05,3.05,0,0,1,3.046,3.046v5.785l2.81,4.215a2.626,2.626,0,0,0,4.465-.154l1.932-3.38-.18-.359A8.6,8.6,0,0,1,47.5,289.842Z" transform="translate(-31.248 -249.988)" fill="#fff"/>
      <path id="Path_1162" data-name="Path 1162" d="M36.326,249.2h1.015v-2.031H35.31v2.2A3.031,3.031,0,0,1,36.326,249.2Z" transform="translate(-31.248 -218.74)" fill="#fff"/>
      <path id="Path_1163" data-name="Path 1163" d="M36.326,316.454a3.031,3.031,0,0,1-1.016-.174v8.3h2.031V317.47A1.017,1.017,0,0,0,36.326,316.454Z" transform="translate(-31.248 -279.898)" fill="#fff"/>
      <path id="Path_1164" data-name="Path 1164" d="M23.711,177.515a.732.732,0,0,0-.694-.963H18.388a.732.732,0,0,0-.694.963l1.71,5.129H22Z" transform="translate(-15.625 -156.243)" fill="#fff"/>
    </g>
  </g>
</svg>
