<svg xmlns="http://www.w3.org/2000/svg" width="50.984" height="50.983" viewBox="0 0 50.984 50.983">
  <g id="Layer_27" data-name="Layer 27" transform="translate(-2 -1.001)">
    <path id="Path_1139" data-name="Path 1139" d="M8.772,16.489h0l3.081-13.11,2.209,1.844A4.236,4.236,0,0,1,15.6,8.487v3.56h1.7V8.487a5.932,5.932,0,0,0-2.14-4.57L11.891,1.2a.85.85,0,0,0-1.371.459L7.538,14.329A4.1,4.1,0,0,0,5.4,13.746C3.522,13.746,2,14.887,2,16.3s1.522,2.549,3.4,2.549C7.188,18.844,8.637,17.805,8.772,16.489Z" fill="#fff"/>
    <path id="Path_1140" data-name="Path 1140" d="M57.155,7.917,53.891,5.2a.85.85,0,0,0-1.371.459L49.538,18.329a4.1,4.1,0,0,0-2.139-.583c-1.877,0-3.4,1.141-3.4,2.549s1.522,2.549,3.4,2.549c1.784,0,3.238-1.039,3.373-2.355h0l3.085-13.11,2.209,1.844a4.236,4.236,0,0,1,1.53,3.264v3.56h1.7v-3.56a5.932,5.932,0,0,0-2.14-4.57Z" transform="translate(-6.311 -0.601)" fill="#fff"/>
    <path id="Path_1141" data-name="Path 1141" d="M16,19.7v7.648h1.7a.85.85,0,0,0,.85-.85V23.948a.85.85,0,0,1,.85-.85h5.1a.85.85,0,0,1,.6.249l.479.478,2.051-.68a.85.85,0,0,1,1.118.8V26.5a.85.85,0,0,0,.85.85h1.7V19.7A1.7,1.7,0,0,0,29.6,18H17.7A1.7,1.7,0,0,0,16,19.7Z" transform="translate(-2.104 -2.554)" fill="#fff"/>
    <path id="Path_1142" data-name="Path 1142" d="M21,45.159V47.2a4.914,4.914,0,0,0,3.254,1.219h.291A4.914,4.914,0,0,0,27.8,47.2V45.159a8.44,8.44,0,0,1-6.8,0Z" transform="translate(-2.855 -6.636)" fill="#fff"/>
    <path id="Path_1143" data-name="Path 1143" d="M13,32.275a1.275,1.275,0,0,0,1.275,1.275H14.7V31h-.425A1.275,1.275,0,0,0,13,32.275Z" transform="translate(-1.653 -4.508)" fill="#fff"/>
    <path id="Path_1144" data-name="Path 1144" d="M30.6,34.5V30.249h-.85A2.549,2.549,0,0,1,27.2,27.7V26.33l-1.431.476a.85.85,0,0,1-.869-.2l-.6-.6H20.4v1.7a2.549,2.549,0,0,1-2.549,2.549H17V34.5a6.8,6.8,0,0,0,13.6,0Z" transform="translate(-2.254 -3.757)" fill="#fff"/>
    <path id="Path_1145" data-name="Path 1145" d="M36.7,32.275A1.275,1.275,0,0,0,35.425,31H35v2.549h.425A1.275,1.275,0,0,0,36.7,32.275Z" transform="translate(-4.959 -4.508)" fill="#fff"/>
    <path id="Path_1146" data-name="Path 1146" d="M26.269,49a6.6,6.6,0,0,1-4.43,1.7h-.291a6.6,6.6,0,0,1-4.43-1.7H12.347A9.358,9.358,0,0,0,3,58.347v.85H35.29V50.041A9.328,9.328,0,0,0,31.041,49Z" transform="translate(-0.15 -7.213)" fill="#fff"/>
    <path id="Path_1147" data-name="Path 1147" d="M43,56.492H58.3V31H43ZM44.7,36.1H56.6v1.7H44.7Zm0,3.4H56.6v1.7H44.7Zm0,3.4H56.6v1.7H44.7Zm0,3.4H56.6v1.7H44.7Z" transform="translate(-6.161 -4.508)" fill="#fff"/>
  </g>
</svg>
