<svg xmlns="http://www.w3.org/2000/svg" width="46.068" height="42.292" viewBox="0 0 46.068 42.292">
  <g id="Group_409" data-name="Group 409" transform="translate(-1025 -5744.892)">
    <g id="job-search" transform="translate(1025 5723.912)">
      <path id="Path_1269" data-name="Path 1269" d="M210.019,261h2.7v2.7h-2.7Z" transform="translate(-191.122 -218.424)"/>
      <path id="Path_1270" data-name="Path 1270" d="M2.735,39.867H25.675A11.561,11.561,0,0,1,40.493,29.553V27.729a1.35,1.35,0,0,0-1.35-1.35H27V22.33a1.35,1.35,0,0,0-1.35-1.35h-10.8a1.35,1.35,0,0,0-1.35,1.35v4.049H1.35A1.35,1.35,0,0,0,0,27.729V37.54a2.775,2.775,0,0,0,2.735,2.327Zm13.46-16.188h8.1v2.7h-8.1Z" transform="translate(0 0)"/>
      <path id="Path_1271" data-name="Path 1271" d="M31.359,261.507a11.55,11.55,0,0,1-5.551-8.053H24.3v4.059a1.35,1.35,0,0,1-1.35,1.35h-5.4a1.35,1.35,0,0,1-1.35-1.35v-4.059H2.735A5.435,5.435,0,0,1,0,252.719v17.707a1.35,1.35,0,0,0,1.35,1.35H31.411c-.093-.711-.033-.268-.052-10.268Z" transform="translate(0 -210.888)"/>
      <path id="Path_1272" data-name="Path 1272" d="M330.2,143.627a8.862,8.862,0,1,0-9.417,14.549v3.106h6.3v-3.106A8.87,8.87,0,0,0,330.2,143.627Zm-6.267,12.427h0a6.16,6.16,0,1,1,6.16-6.16A6.147,6.147,0,0,1,323.929,156.054Z" transform="translate(-286.721 -109.253)"/>
      <path id="Path_1273" data-name="Path 1273" d="M378.533,401.458a3.149,3.149,0,1,0,6.3,0v-5.395h-6.3Z" transform="translate(-344.474 -341.335)"/>
    </g>
  </g>
</svg>
