<svg xmlns="http://www.w3.org/2000/svg" width="49.434" height="42" viewBox="0 0 49.434 42">
  <path id="Path_1274" data-name="Path 1274" d="M29.831,13.557a9.078,9.078,0,0,1,4.18,6.737,7.154,7.154,0,0,0,3.064.693,7.32,7.32,0,1,0-7.244-7.43Zm-4.75,14.987a7.32,7.32,0,1,0-7.251-7.319A7.285,7.285,0,0,0,25.082,28.544Zm3.075.5H22.005a9.339,9.339,0,0,0-9.283,9.372v7.6l.019.119.518.164a41.887,41.887,0,0,0,12.622,2.055c6.823,0,10.777-1.964,11.021-2.089l.484-.247h.052v-7.6A9.336,9.336,0,0,0,28.157,29.042Zm11.995-7.556h-6.1a9.06,9.06,0,0,1-2.758,6.283,11.122,11.122,0,0,1,7.879,10.657v2.341A24.787,24.787,0,0,0,48.9,38.7l.484-.248h.052v-7.6A9.338,9.338,0,0,0,40.152,21.486Zm-27.792-.5a7.152,7.152,0,0,0,3.856-1.13,9.075,9.075,0,0,1,3.373-5.777c.007-.137.02-.273.02-.411a7.25,7.25,0,1,0-7.249,7.318Zm6.511,6.781a9.065,9.065,0,0,1-2.756-6.248c-.226-.017-.45-.035-.681-.035H9.283A9.338,9.338,0,0,0,0,30.857v7.6l.019.117.518.165A43.155,43.155,0,0,0,10.991,40.72V38.426A11.125,11.125,0,0,1,18.871,27.769Z" transform="translate(0 -6.348)"/>
</svg>
