<svg xmlns="http://www.w3.org/2000/svg" width="53.15" height="51.378" viewBox="0 0 53.15 51.378">
  <g id="engineer" transform="translate(-1 -3)">
    <path id="Path_1199" data-name="Path 1199" d="M13.4,24.6h1.772V27.26h5.315V38.776H22.26V27.26h5.315V20.173h-12.4v2.657H13.4V20.173H8.087V14.858H13.4V6H1v8.858H6.315v5.315H1V27.26H13.4ZM4.543,9.543H9.858v1.772H4.543Z" transform="translate(0 -0.343)" fill="#fff"/>
    <path id="Path_1200" data-name="Path 1200" d="M34,11H57.031v1.772H34Z" transform="translate(-3.768 -0.913)" fill="#fff"/>
    <path id="Path_1201" data-name="Path 1201" d="M49.3,3H42.21a6.206,6.206,0,0,0-6.13,5.315H55.426A6.206,6.206,0,0,0,49.3,3Z" transform="translate(-4.005)" fill="#fff"/>
    <path id="Path_1202" data-name="Path 1202" d="M57.315,19.491V15H52v1.783a3.839,3.839,0,0,1,2.008,6.9L52,25.187v1.822l.142-.053A8.008,8.008,0,0,0,57.315,19.491Z" transform="translate(-5.823 -1.37)" fill="#fff"/>
    <path id="Path_1203" data-name="Path 1203" d="M46.63,33.6A1.773,1.773,0,0,0,48.4,31.831V24.3l2.716-2.037a2.067,2.067,0,0,0-1.239-3.72H48.4V15H37.772v2.04l-1.615,2.421a.941.941,0,0,0-.157.52,1.082,1.082,0,0,0,.6.974l1.169.585v3.2A2.661,2.661,0,0,0,40.429,27.4h4.429v4.429A1.773,1.773,0,0,0,46.63,33.6Z" transform="translate(-3.996 -1.37)" fill="#fff"/>
    <path id="Path_1204" data-name="Path 1204" d="M49.556,35.273a3.52,3.52,0,0,1-6.722-.155l-.967.128A12.294,12.294,0,0,0,32.4,42.1H41.79v5.336a3.514,3.514,0,0,1,2.291,1.017l.733.734h3.955a3.679,3.679,0,0,0,2.581-1.069,3.627,3.627,0,0,0,1.069-2.581v-2.55h1.772v2.55a5.423,5.423,0,0,1-5.422,5.422H45.333V54.5h4.785a7.625,7.625,0,0,0,7.616-7.617,12.366,12.366,0,0,0-8.179-11.611Zm1.092,7.713H47.1V41.214h3.543Z" transform="translate(-3.585 -3.667)" fill="#fff"/>
    <path id="Path_1205" data-name="Path 1205" d="M42.328,51H40.772A1.773,1.773,0,0,0,39,52.772v1.772a1.773,1.773,0,0,0,1.772,1.772h3.543V52.253l-.733-.733A1.763,1.763,0,0,0,42.328,51Z" transform="translate(-4.339 -5.48)" fill="#fff"/>
    <path id="Path_1206" data-name="Path 1206" d="M34.031,53.741V51.969a3.547,3.547,0,0,1,3.543-3.543V44.883H13.657A4.383,4.383,0,0,1,11,43.974V56.4a2.661,2.661,0,0,0,2.657,2.657H37.575V57.284A3.547,3.547,0,0,1,34.031,53.741Z" transform="translate(-1.142 -4.678)" fill="#fff"/>
    <path id="Path_1207" data-name="Path 1207" d="M11,39.657a2.661,2.661,0,0,0,2.657,2.657h2.657V37H13.657A2.661,2.661,0,0,0,11,39.657Z" transform="translate(-1.142 -3.882)" fill="#fff"/>
  </g>
</svg>
