<svg xmlns="http://www.w3.org/2000/svg" width="58" height="58" viewBox="0 0 58 58">
  <g id="blogger" transform="translate(-3 -3)">
    <path id="Path_1165" data-name="Path 1165" d="M51,37h2V53H51Z" fill="#fff"/>
    <path id="Path_1166" data-name="Path 1166" d="M51,58a3,3,0,0,0,6,0V55H51Z" fill="#fff"/>
    <path id="Path_1167" data-name="Path 1167" d="M54,31.8,51.868,35h4.264Z" fill="#fff"/>
    <path id="Path_1168" data-name="Path 1168" d="M55,37h2V53H55Z" fill="#fff"/>
    <path id="Path_1169" data-name="Path 1169" d="M32.52,49.8l-4.7-1.106-1.054,9.488L22,53.414l-4.764,4.764L16.182,48.69l-4.7,1.106A10.959,10.959,0,0,0,3,60.5V61H9V57h2v4H33V57h2v4h6v-.5A10.958,10.958,0,0,0,32.52,49.8ZM23,59H21V57h2Z" fill="#fff"/>
    <path id="Path_1170" data-name="Path 1170" d="M39,25H57V15H39Zm2-8H55v2H41Zm0,4H55v2H41Z" fill="#fff"/>
    <path id="Path_1171" data-name="Path 1171" d="M13,31.516a3.516,3.516,0,0,1,4.821-3.265,11.2,11.2,0,0,0,8.358,0A3.516,3.516,0,0,1,31,31.516v2.472A9.958,9.958,0,0,0,33,28a6.023,6.023,0,0,0-2.232-4.651C30.091,25.285,27.912,27,24,27V25c3.283,0,5-1.509,5-3a8.789,8.789,0,0,0-1.266-3.507l-2.192,1.754a8.032,8.032,0,0,1-5,1.753H17a6.006,6.006,0,0,0-6,6,9.958,9.958,0,0,0,2,5.987Z" fill="#fff"/>
    <path id="Path_1172" data-name="Path 1172" d="M29,36V31.516a1.517,1.517,0,0,0-2.079-1.408,13.191,13.191,0,0,1-9.843,0A1.516,1.516,0,0,0,15,31.516V36a7,7,0,0,0,14,0Z" fill="#fff"/>
    <path id="Path_1173" data-name="Path 1173" d="M24,46.723V44.768a8.737,8.737,0,0,1-4,0v1.955l2,3.333Z" fill="#fff"/>
    <path id="Path_1174" data-name="Path 1174" d="M18.143,48.229l.621,5.593,1.977-1.977-2.223-3.7Z" fill="#fff"/>
    <path id="Path_1175" data-name="Path 1175" d="M25.857,48.229l-.375-.088-2.223,3.7,1.977,1.977Z" fill="#fff"/>
    <path id="Path_1176" data-name="Path 1176" d="M60,3H16a1,1,0,0,0-1,1V9H61V4A1,1,0,0,0,60,3ZM19,7H17V5h2Zm4,0H21V5h2Zm4,0H25V5h2Z" fill="#fff"/>
    <path id="Path_1177" data-name="Path 1177" d="M15,20.263A7.953,7.953,0,0,1,17,20h3.544a6.031,6.031,0,0,0,3.749-1.314l3.934-3.148.6.908A15.069,15.069,0,0,1,30.9,21.035,8.027,8.027,0,0,1,35,28a11.95,11.95,0,0,1-4.054,8.969A9.011,9.011,0,0,1,26,44.051v2.158L29.366,47H49V35.7l5-7.5,5,7.5V47h1a1,1,0,0,0,1-1V11H15ZM43,43H33V41H43Zm4,0H45V41h2Zm0-4H33V37H47ZM37,13H59V27H37Zm0,16H47v2H37Zm0,4H47v2H37ZM25,13h2v2H25Zm-4,0h2v2H21Zm-4,0h2v2H17Z" fill="#fff"/>
  </g>
</svg>
