<svg xmlns="http://www.w3.org/2000/svg" width="56.256" height="68" viewBox="0 0 56.256 68">
  <g id="singer" transform="translate(-45.812 0)">
    <g id="Group_268" data-name="Group 268" transform="translate(76.485 10.572)">
      <g id="Group_267" data-name="Group 267">
        <path id="Path_1126" data-name="Path 1126" d="M284.607,129.394l-7.334-42.825a1.869,1.869,0,0,0,.113-3.7c-.1.414.013.066-2.365,6.466l6.938,40.511a1.343,1.343,0,1,0,2.648-.453Z" transform="translate(-275.021 -82.871)" fill="#fff"/>
      </g>
    </g>
    <g id="Group_270" data-name="Group 270" transform="translate(45.812 6.961)">
      <g id="Group_269" data-name="Group 269">
        <path id="Path_1127" data-name="Path 1127" d="M72.037,67.731,76.48,55.872a2.852,2.852,0,0,0-1.7-3.675,2.89,2.89,0,0,0-3.706,1.684l-3.561,9.5-8.972-2.057,6.767.2a4.308,4.308,0,0,0-4.8-2.409l-7.5,1.566a4.263,4.263,0,0,0-3.321,5.048l4.353,20.508-.59,9.962-7.16,11.8a3.314,3.314,0,0,0,1.146,4.57,3.374,3.374,0,0,0,4.608-1.137l7.586-12.5a3.312,3.312,0,0,0,.475-1.521l.69-11.652,2.743-.573,3.7,8.924L67.4,109.76a3.358,3.358,0,0,0,6.716-.068l-.168-16.283a3.306,3.306,0,0,0-.252-1.232l-3.645-8.792L67.532,71.5,57.245,66.9l11.441,2.623A2.887,2.887,0,0,0,72.037,67.731Z" transform="translate(-45.812 -52.018)" fill="#fff"/>
      </g>
    </g>
    <g id="Group_272" data-name="Group 272" transform="translate(49.543 0)">
      <g id="Group_271" data-name="Group 271" transform="translate(0)">
        <path id="Path_1128" data-name="Path 1128" d="M92.858,8.353a3.546,3.546,0,0,0-6.623-.459,6.385,6.385,0,1,0-.254.793A3.545,3.545,0,0,0,91.44,12.31l1.465-3.944Z" transform="translate(-73.694 0)" fill="#fff"/>
      </g>
    </g>
    <g id="Group_274" data-name="Group 274" transform="translate(85.356 2.191)">
      <g id="Group_273" data-name="Group 273" transform="translate(0)">
        <path id="Path_1129" data-name="Path 1129" d="M356.436,16.474v0l-10,2.269,0,.016a1.119,1.119,0,0,0-.661,1.02v7.6a4.463,4.463,0,0,0-1.118-.14c-1.854,0-3.357,1.1-3.357,2.462s1.5,2.462,3.357,2.462c1.993,0,3.3-1.254,3.333-2.754,0-.168.017-1.476.024-6.744l7.76-1.761V25.1a4.463,4.463,0,0,0-1.118-.14c-1.854,0-3.357,1.1-3.357,2.462s1.5,2.462,3.357,2.462c1.992,0,3.3-1.254,3.333-2.754,0-.171.013-.954.024-9.633A1.119,1.119,0,0,0,356.436,16.474Z" transform="translate(-341.305 -16.373)" fill="#fff"/>
      </g>
    </g>
  </g>
</svg>
