<svg id="clapperboard" xmlns="http://www.w3.org/2000/svg" width="48.494" height="48.494" viewBox="0 0 48.494 48.494">
  <g id="Page-1_38_" transform="translate(0)">
    <g id="_x30_39---Film-FX">
      <g id="Group_287" data-name="Group 287" transform="translate(6.928)">
        <path id="Path_217_" d="M386.585,54.857h-4.479l-3.464,3.464h4.479Z" transform="translate(-349.707 -49.661)" fill="#fff" fill-rule="evenodd"/>
        <path id="Path_216_" d="M313.442,3.464,309.978,0H305.5l3.464,3.464Z" transform="translate(-283.492)" fill="#fff" fill-rule="evenodd"/>
        <path id="Path_215_" d="M240.3,3.464,236.836,0h-4.479l3.464,3.464Z" transform="translate(-217.277)" fill="#fff" fill-rule="evenodd"/>
        <path id="Path_214_" d="M167.157,3.464,163.693,0h-4.479l3.464,3.464Z" transform="translate(-151.062)" fill="#fff" fill-rule="evenodd"/>
        <path id="Path_213_" d="M82.31,3.464,78.846,0h-5.7l2.6,3.464Z" transform="translate(-73.143)" fill="#fff" fill-rule="evenodd"/>
        <path id="Path_212_" d="M313.442,54.857h-4.479L305.5,58.321h4.479Z" transform="translate(-283.492 -49.661)" fill="#fff" fill-rule="evenodd"/>
        <path id="Path_211_" d="M116.544,57.869l3.012-3.012h-5.27Z" transform="translate(-110.389 -49.661)" fill="#fff" fill-rule="evenodd"/>
        <path id="Path_210_" d="M386.585,3.464,383.121,0h-4.479l3.464,3.464Z" transform="translate(-349.707)" fill="#fff" fill-rule="evenodd"/>
        <path id="Path_209_" d="M240.3,54.857h-4.479l-3.464,3.464h4.479Z" transform="translate(-217.277 -49.661)" fill="#fff" fill-rule="evenodd"/>
      </g>
      <path id="Shape_105_" d="M4.763,0H.866A.866.866,0,0,0,0,.866V7.794a.866.866,0,0,0,.866.866H11.257ZM2.6,6.928a.866.866,0,1,1,.866-.866A.866.866,0,0,1,2.6,6.928Zm0-3.464A.866.866,0,1,1,3.464,2.6.866.866,0,0,1,2.6,3.464ZM6.062,6.928a.866.866,0,1,1,.866-.866A.866.866,0,0,1,6.062,6.928Z" transform="translate(0)" fill="#fff"/>
      <path id="Path_208_" d="M167.157,54.857h-4.479l-3.464,3.464h4.479Z" transform="translate(-144.134 -49.661)" fill="#fff" fill-rule="evenodd"/>
      <path id="Shape_104_" d="M99.122,292.571H74.875a1.732,1.732,0,0,0-1.732,1.732v17.319a1.732,1.732,0,0,0,1.732,1.732H99.122a1.732,1.732,0,0,0,1.732-1.732V294.3A1.732,1.732,0,0,0,99.122,292.571ZM84.4,298.633h-4.33v2.6h3.464a.866.866,0,0,1,0,1.732H80.071v5.2a.866.866,0,0,1-1.732,0v-9.526a1.732,1.732,0,0,1,1.732-1.732H84.4a.866.866,0,0,1,0,1.732Zm11.112,9.045a.866.866,0,0,1-1.441.961l-2.743-4.118-2.743,4.115a.866.866,0,1,1-1.441-.961l3.145-4.713-3.143-4.715a.866.866,0,0,1,1.441-.961l2.742,4.118,2.743-4.115a.866.866,0,1,1,1.441.961l-3.145,4.712Z" transform="translate(-66.215 -264.86)" fill="#fff"/>
      <path id="Path_207_" d="M18.286,140.889a1.732,1.732,0,0,0,1.732,1.732H21.75V128.765a3.464,3.464,0,0,1,3.464-3.464h.308a7.788,7.788,0,1,1,11.815-9.612A7.788,7.788,0,1,1,49.152,125.3h.308a3.464,3.464,0,0,1,3.464,3.464v.866l2.771-2.078a2.6,2.6,0,0,1,4.157,2.078V142.62h1.732a1.732,1.732,0,0,0,1.732-1.732V109.714H18.286Z" transform="translate(-16.554 -99.323)" fill="#fff" fill-rule="evenodd"/>
      <path id="Path_206_" d="M197.888,250.283h4.08a7.821,7.821,0,0,1-2.04-2.511A7.821,7.821,0,0,1,197.888,250.283Z" transform="translate(-179.145 -224.305)" fill="#fff" fill-rule="evenodd"/>
      <path id="Path_205_" d="M388.719,310.938a.85.85,0,0,0-.908.079L384,313.874v11.257l3.81,2.858a.866.866,0,0,0,1.385-.693V311.71A.848.848,0,0,0,388.719,310.938Z" transform="translate(-347.63 -281.401)" fill="#fff" fill-rule="evenodd"/>
      <circle id="Oval_26_" cx="6.062" cy="6.062" r="6.062" transform="translate(7.794 13.855)" fill="#fff"/>
      <circle id="Oval_25_" cx="6.062" cy="6.062" r="6.062" transform="translate(21.649 13.855)" fill="#fff"/>
      <path id="Path_204_" d="M456.622,54.857h-1.373l-3.464,3.464h4.837a.866.866,0,0,0,.866-.866V55.723A.866.866,0,0,0,456.622,54.857Z" transform="translate(-408.995 -49.661)" fill="#fff" fill-rule="evenodd"/>
      <path id="Path_203_" d="M456.622,0h-4.837l3.464,3.464h1.373a.866.866,0,0,0,.866-.866V.866A.866.866,0,0,0,456.622,0Z" transform="translate(-408.995 0)" fill="#fff" fill-rule="evenodd"/>
    </g>
  </g>
</svg>
